<svg id="svg-exhibit-6-1" class="diagram-svg" viewBox="0 0 760 290" xmlns="http://www.w3.org/2000/svg">
  <defs>
    <linearGradient id="g1" x1="0" y1="0" x2="1" y2="0"><stop offset="0%" stop-color="#94a3b8"/><stop offset="100%" stop-color="#cbd5e1"/></linearGradient>
    <linearGradient id="g2" x1="0" y1="0" x2="1" y2="0"><stop offset="0%" stop-color="#0284c7"/><stop offset="100%" stop-color="#38bdf8"/></linearGradient>
    <linearGradient id="g3" x1="0" y1="0" x2="1" y2="0"><stop offset="0%" stop-color="#065f46"/><stop offset="100%" stop-color="#059669"/></linearGradient>
    <marker id="arr" viewBox="0 0 10 10" refX="8" refY="5" markerWidth="7" markerHeight="7" orient="auto-start-reverse"><path d="M 0 0 L 10 5 L 0 10 z" fill="#64748b"/></marker>
  </defs>
  <rect x="575" y="196" width="170" height="80" rx="10" fill="url(#g1)"/>
  <text x="660" y="222" fill="#334155" font-weight="800" font-size="12" text-anchor="middle">1. الالتزام الاجتماعي</text>
  <text x="660" y="242" fill="#475569" font-size="9.5" text-anchor="middle">الاقتصار على تلبية الواجبات</text>
  <text x="660" y="258" fill="#475569" font-size="9.5" text-anchor="middle">القانونية والاقتصادية المفروضة</text>
  <rect x="385" y="136" width="170" height="80" rx="10" fill="url(#g2)"/>
  <text x="470" y="162" fill="#ffffff" font-weight="800" font-size="12" text-anchor="middle">2. الاستجابة الاجتماعية</text>
  <text x="470" y="182" fill="#f0f9ff" font-size="9.5" text-anchor="middle">التفاعل الإيجابي مع المطالب</text>
  <text x="470" y="198" fill="#f0f9ff" font-size="9.5" text-anchor="middle">والضغوط المجتمعية الآنية</text>
  <rect x="195" y="76" width="170" height="80" rx="10" fill="url(#g3)"/>
  <text x="280" y="102" fill="#ffffff" font-weight="800" font-size="12" text-anchor="middle">3. المسؤولية الاجتماعية</text>
  <text x="280" y="122" fill="#d1fae5" font-size="9.5" text-anchor="middle">الالتزام الأخلاقي الذاتي بفعل</text>
  <text x="280" y="138" fill="#d1fae5" font-size="9.5" text-anchor="middle">الصواب والنفع المجتمعي المستدام</text>
  <path d="M 575 236 L 555 236" fill="none" stroke="#64748b" stroke-width="2.5" marker-end="url(#arr)"/>
  <path d="M 385 176 L 365 176" fill="none" stroke="#64748b" stroke-width="2.5" marker-end="url(#arr)"/>
  <path d="M 470 136 L 470 116" fill="none" stroke="#64748b" stroke-width="2" stroke-dasharray="4 3"/>
  <rect x="150" y="16" width="460" height="44" rx="10" fill="#1e3a8a"/>
  <text x="380" y="36" fill="#ffffff" font-weight="800" font-size="12.5" text-anchor="middle">تدرج تصاعدي نحو الالتزام الأخلاقي الذاتي</text>
  <text x="380" y="52" fill="#dbeafe" font-size="10" text-anchor="middle">(Social Obligation → Responsiveness → Responsibility)</text>
  <rect x="150" y="262" width="460" height="0" rx="0" fill="none"/>
</svg>