<svg id="svg-exhibit-9-3" class="diagram-svg" viewBox="0 0 760 350" xmlns="http://www.w3.org/2000/svg">
  <defs>
    <linearGradient id="gc" x1="0" y1="0" x2="1" y2="0"><stop offset="0%" stop-color="#1e3a8a"/><stop offset="100%" stop-color="#2563eb"/></linearGradient>
    <linearGradient id="g1" x1="0" y1="0" x2="1" y2="0"><stop offset="0%" stop-color="#be123c"/><stop offset="100%" stop-color="#fb7185"/></linearGradient>
    <linearGradient id="g2" x1="0" y1="0" x2="1" y2="0"><stop offset="0%" stop-color="#0f766e"/><stop offset="100%" stop-color="#0d9488"/></linearGradient>
    <linearGradient id="g3" x1="0" y1="0" x2="1" y2="0"><stop offset="0%" stop-color="#b45309"/><stop offset="100%" stop-color="#f59e0b"/></linearGradient>
    <linearGradient id="g4" x1="0" y1="0" x2="1" y2="0"><stop offset="0%" stop-color="#7c3aed"/><stop offset="100%" stop-color="#a78bfa"/></linearGradient>
    <linearGradient id="g5" x1="0" y1="0" x2="1" y2="0"><stop offset="0%" stop-color="#475569"/><stop offset="100%" stop-color="#94a3b8"/></linearGradient>
  </defs>
  <rect x="290" y="130" width="180" height="90" rx="12" fill="url(#gc)"/>
  <text x="380" y="162" fill="#ffffff" font-weight="800" font-size="13.5" text-anchor="middle">المنافسة في الصناعة</text>
  <text x="380" y="184" fill="#dbeafe" font-size="10.5" text-anchor="middle">(Industry Rivalry)</text>
  <text x="380" y="204" fill="#dbeafe" font-size="10" text-anchor="middle">شدة التنافس بين المنافسين الحاليين</text>
  <rect x="520" y="14" width="220" height="86" rx="10" fill="url(#g1)"/>
  <text x="630" y="40" fill="#ffffff" font-weight="800" font-size="12" text-anchor="middle">الداخلون الجدد</text>
  <text x="630" y="62" fill="#ffe4e6" font-size="9.5" text-anchor="middle">(New Entrants)</text>
  <text x="630" y="80" fill="#ffe4e6" font-size="9.5" text-anchor="middle">حواجز الدخول وتهديد الوافدين</text>
  <rect x="20" y="14" width="220" height="86" rx="10" fill="url(#g2)"/>
  <text x="130" y="40" fill="#ffffff" font-weight="800" font-size="12" text-anchor="middle">المنتجات البديلة</text>
  <text x="130" y="62" fill="#ccfbf1" font-size="9.5" text-anchor="middle">(Substitutes)</text>
  <text x="130" y="80" fill="#ccfbf1" font-size="9.5" text-anchor="middle">تهديد البدائل المتاحة للعميل</text>
  <rect x="520" y="250" width="220" height="86" rx="10" fill="url(#g3)"/>
  <text x="630" y="276" fill="#ffffff" font-weight="800" font-size="12" text-anchor="middle">قوة المشترين</text>
  <text x="630" y="298" fill="#fef3c7" font-size="9.5" text-anchor="middle">(Buyer Power)</text>
  <text x="630" y="316" fill="#fef3c7" font-size="9.5" text-anchor="middle">قدرة العملاء على الضغط على الأسعار</text>
  <rect x="20" y="250" width="220" height="86" rx="10" fill="url(#g4)"/>
  <text x="130" y="276" fill="#ffffff" font-weight="800" font-size="12" text-anchor="middle">قوة الموردين</text>
  <text x="130" y="298" fill="#ede9fe" font-size="9.5" text-anchor="middle">(Supplier Power)</text>
  <text x="130" y="316" fill="#ede9fe" font-size="9.5" text-anchor="middle">قدرة الموردين على رفع التكاليف</text>
  <rect x="290" y="14" width="180" height="86" rx="10" fill="url(#g5)"/>
  <text x="380" y="40" fill="#ffffff" font-weight="800" font-size="12" text-anchor="middle">البدائل القريبة</text>
  <text x="380" y="62" fill="#f1f5f9" font-size="9.5" text-anchor="middle">(Threat of Substitutes)</text>
  <text x="380" y="80" fill="#f1f5f9" font-size="9.5" text-anchor="middle">منتجات خارجية تلبي الحاجة ذاتها</text>
  <path d="M 380 130 L 380 100" fill="none" stroke="#94a3b8" stroke-width="2" marker-end="url(#arr)"/>
  <path d="M 380 220 L 380 250" fill="none" stroke="#94a3b8" stroke-width="2" marker-end="url(#arr)"/>
  <path d="M 290 175 L 240 175" fill="none" stroke="#94a3b8" stroke-width="2" marker-end="url(#arr)"/>
  <path d="M 470 175 L 520 175" fill="none" stroke="#94a3b8" stroke-width="2" marker-end="url(#arr)"/>
  <defs><marker id="arr" viewBox="0 0 10 10" refX="8" refY="5" markerWidth="7" markerHeight="7" orient="auto-start-reverse"><path d="M 0 0 L 10 5 L 0 10 z" fill="#94a3b8"/></marker></defs>
  <text x="380" y="340" fill="#64748b" font-size="10.5" text-anchor="middle">(Porter's Five Forces Model)</text>
</svg>